<svg width="119" height="16" viewBox="0 0 119 16" fill="none" xmlns="http://www.w3.org/2000/svg">
<g clip-path="url(#clip0_109_868)">
<path d="M36.56 15.52C37.8137 15.52 38.83 14.5037 38.83 13.25C38.83 11.9963 37.8137 10.98 36.56 10.98C35.3063 10.98 34.29 11.9963 34.29 13.25C34.29 14.5037 35.3063 15.52 36.56 15.52Z" fill="#00FF04"/>
<path d="M23.2002 15.52C24.4539 15.52 25.4702 14.5037 25.4702 13.25C25.4702 11.9963 24.4539 10.98 23.2002 10.98C21.9465 10.98 20.9302 11.9963 20.9302 13.25C20.9302 14.5037 21.9465 15.52 23.2002 15.52Z" fill="#00FF04"/>
<path d="M49.9204 10.98C51.1804 10.98 52.1904 12 52.1904 13.25C52.1904 14.5 51.1704 15.52 49.9204 15.52C48.6704 15.52 47.6504 14.5 47.6504 13.25C47.6504 12 48.6704 10.98 49.9204 10.98Z" fill="#00FF04"/>
<path d="M63.2803 15.52C64.5339 15.52 65.5503 14.5037 65.5503 13.25C65.5503 11.9963 64.5339 10.98 63.2803 10.98C62.0266 10.98 61.0103 11.9963 61.0103 13.25C61.0103 14.5037 62.0266 15.52 63.2803 15.52Z" fill="#00FF04"/>
<path d="M78.9057 13.2659C78.9136 12.0122 77.9037 10.9896 76.65 10.9817C75.3964 10.9738 74.3737 11.9837 74.3658 13.2374C74.3579 14.491 75.3679 15.5137 76.6215 15.5216C77.8752 15.5295 78.8979 14.5196 78.9057 13.2659Z" fill="#00FF04"/>
<path d="M90 10.98C91.26 10.98 92.28 12 92.28 13.25C92.28 14.5 91.26 15.52 90 15.52C88.74 15.52 87.73 14.5 87.73 13.25C87.73 12 88.75 10.98 90 10.98Z" fill="#00FF04"/>
<path d="M103.36 15.52C104.614 15.52 105.63 14.5037 105.63 13.25C105.63 11.9963 104.614 10.98 103.36 10.98C102.107 10.98 101.09 11.9963 101.09 13.25C101.09 14.5037 102.107 15.52 103.36 15.52Z" fill="#00FF04"/>
<path d="M116.72 15.52C117.974 15.52 118.99 14.5037 118.99 13.25C118.99 11.9963 117.974 10.98 116.72 10.98C115.467 10.98 114.45 11.9963 114.45 13.25C114.45 14.5037 115.467 15.52 116.72 15.52Z" fill="#00FF04"/>
<path d="M16.52 5.00997C17.7737 5.00997 18.79 3.99366 18.79 2.73997C18.79 1.48628 17.7737 0.469971 16.52 0.469971C15.2663 0.469971 14.25 1.48628 14.25 2.73997C14.25 3.99366 15.2663 5.00997 16.52 5.00997Z" fill="#00FF04"/>
<path d="M3.16014 5.00997C4.41382 5.00997 5.43014 3.99366 5.43014 2.73997C5.43014 1.48628 4.41382 0.469971 3.16014 0.469971C1.90645 0.469971 0.890137 1.48628 0.890137 2.73997C0.890137 3.99366 1.90645 5.00997 3.16014 5.00997Z" fill="#00FF04"/>
<path d="M29.8804 0.469971C31.1404 0.469971 32.1604 1.48997 32.1604 2.73997C32.1604 3.98997 31.1404 5.00997 29.8804 5.00997C28.6204 5.00997 27.6104 3.98997 27.6104 2.73997C27.6104 1.48997 28.6304 0.469971 29.8804 0.469971Z" fill="#00FF04"/>
<path d="M43.2402 5.00997C44.4939 5.00997 45.5102 3.99366 45.5102 2.73997C45.5102 1.48628 44.4939 0.469971 43.2402 0.469971C41.9865 0.469971 40.9702 1.48628 40.9702 2.73997C40.9702 3.99366 41.9865 5.00997 43.2402 5.00997Z" fill="#00FF04"/>
<path d="M56.6001 5.00997C57.8538 5.00997 58.8701 3.99366 58.8701 2.73997C58.8701 1.48628 57.8538 0.469971 56.6001 0.469971C55.3464 0.469971 54.3301 1.48628 54.3301 2.73997C54.3301 3.99366 55.3464 5.00997 56.6001 5.00997Z" fill="#00FF04"/>
<path d="M70.1815 5.00784C71.4291 4.88441 72.3404 3.77298 72.217 2.52538C72.0936 1.27779 70.9822 0.366468 69.7346 0.489895C68.487 0.613322 67.5756 1.72476 67.6991 2.97235C67.8225 4.21995 68.9339 5.13127 70.1815 5.00784Z" fill="#00FF04"/>
<path d="M83.3203 5.00997C84.574 5.00997 85.5903 3.99366 85.5903 2.73997C85.5903 1.48628 84.574 0.469971 83.3203 0.469971C82.0666 0.469971 81.0503 1.48628 81.0503 2.73997C81.0503 3.99366 82.0666 5.00997 83.3203 5.00997Z" fill="#00FF04"/>
<path d="M96.6802 5.00997C97.9338 5.00997 98.9502 3.99366 98.9502 2.73997C98.9502 1.48628 97.9338 0.469971 96.6802 0.469971C95.4265 0.469971 94.4102 1.48628 94.4102 2.73997C94.4102 3.99366 95.4265 5.00997 96.6802 5.00997Z" fill="#00FF04"/>
</g>
<defs>
<clipPath id="clip0_109_868">
<rect width="118.11" height="15.06" fill="white" transform="translate(0.890137 0.469971)"/>
</clipPath>
</defs>
</svg>
