<svg width="10" height="12" viewBox="0 0 10 12" fill="none" xmlns="http://www.w3.org/2000/svg">
<path d="M9.37466 7.75594L6.33353 6.00008L9.37466 4.24422C9.52771 4.15577 9.63938 4.01015 9.68511 3.83939C9.73083 3.66862 9.70688 3.48669 9.6185 3.33359C9.53012 3.18048 9.38456 3.06874 9.21382 3.02293C9.04308 2.97711 8.86114 3.00098 8.70799 3.08927L5.66666 4.84525V1.33341C5.66666 1.1566 5.59642 0.987035 5.47139 0.86201C5.34637 0.736986 5.1768 0.666748 4.99999 0.666748C4.82318 0.666748 4.65361 0.736986 4.52858 0.86201C4.40356 0.987035 4.33332 1.1566 4.33332 1.33341V4.84525L1.29199 3.08925C1.13884 3.00096 0.956893 2.97709 0.786153 3.02291C0.615412 3.06872 0.469853 3.18046 0.381477 3.33357C0.293101 3.48667 0.269142 3.6686 0.314869 3.83937C0.360595 4.01013 0.472263 4.15575 0.625322 4.2442L3.66645 6.00008L0.625322 7.75594C0.472263 7.8444 0.360595 7.99001 0.314869 8.16078C0.269142 8.33154 0.293101 8.51347 0.381477 8.66658C0.469853 8.81968 0.615412 8.93142 0.786153 8.97724C0.956893 9.02305 1.13884 8.99919 1.29199 8.91089L4.33332 7.15491V10.6667C4.33332 10.8436 4.40356 11.0131 4.52858 11.1382C4.65361 11.2632 4.82318 11.3334 4.99999 11.3334C5.1768 11.3334 5.34637 11.2632 5.47139 11.1382C5.59642 11.0131 5.66666 10.8436 5.66666 10.6667V7.15491L8.70799 8.91091C8.86114 8.99921 9.04308 9.02307 9.21382 8.97726C9.38456 8.93145 9.53012 8.8197 9.6185 8.6666C9.70688 8.51349 9.73083 8.33156 9.68511 8.1608C9.63938 7.99003 9.52771 7.84442 9.37466 7.75596V7.75594Z" fill="#00FF04"/>
</svg>
